<mxfile host="65bd71144e">
    <diagram id="L_X3ll1z1j2Bcuq2RGVL" name="Page-1">
        <mxGraphModel dx="1386" dy="792" grid="1" gridSize="10" guides="1" tooltips="1" connect="1" arrows="1" fold="1" page="1" pageScale="1" pageWidth="850" pageHeight="1100" background="none" math="0" shadow="0">
            <root>
                <mxCell id="0"/>
                <mxCell id="1" parent="0"/>
                <mxCell id="4" style="edgeStyle=none;html=1;rounded=0;" edge="1" parent="1">
                    <mxGeometry relative="1" as="geometry">
                        <mxPoint x="60" y="140" as="targetPoint"/>
                        <mxPoint x="60" y="140" as="sourcePoint"/>
                    </mxGeometry>
                </mxCell>
                <mxCell id="7" value="Person" style="swimlane;rounded=0;" vertex="1" parent="1">
                    <mxGeometry x="40" y="30" width="170" height="170" as="geometry">
                        <mxRectangle x="210" y="50" width="100" height="30" as="alternateBounds"/>
                    </mxGeometry>
                </mxCell>
                <mxCell id="14" value="&lt;ul&gt;&lt;li&gt;id&lt;/li&gt;&lt;li&gt;name&lt;/li&gt;&lt;li&gt;phone number&lt;/li&gt;&lt;/ul&gt;" style="whiteSpace=wrap;html=1;align=left;" vertex="1" parent="7">
                    <mxGeometry y="20" width="170" height="80" as="geometry"/>
                </mxCell>
                <mxCell id="18" style="edgeStyle=none;html=1;exitX=0.5;exitY=0;exitDx=0;exitDy=0;entryX=0.5;entryY=1;entryDx=0;entryDy=0;" edge="1" parent="1" source="15" target="7">
                    <mxGeometry relative="1" as="geometry"/>
                </mxCell>
                <mxCell id="15" value="Cliente" style="swimlane;rounded=0;" vertex="1" collapsed="1" parent="1">
                    <mxGeometry x="40" y="270" width="100" height="30" as="geometry">
                        <mxRectangle x="40" y="270" width="170" height="170" as="alternateBounds"/>
                    </mxGeometry>
                </mxCell>
                <mxCell id="16" value="&lt;div&gt;&lt;br&gt;&lt;/div&gt;" style="whiteSpace=wrap;html=1;align=left;" vertex="1" parent="15">
                    <mxGeometry y="20" width="170" height="80" as="geometry"/>
                </mxCell>
                <mxCell id="21" style="edgeStyle=none;html=1;exitX=0.5;exitY=0;exitDx=0;exitDy=0;" edge="1" parent="1" source="19">
                    <mxGeometry relative="1" as="geometry">
                        <mxPoint x="140" y="200" as="targetPoint"/>
                        <Array as="points">
                            <mxPoint x="300" y="240"/>
                            <mxPoint x="140" y="240"/>
                        </Array>
                    </mxGeometry>
                </mxCell>
                <mxCell id="24" value="" style="edgeStyle=none;html=1;" edge="1" parent="1" source="19" target="22">
                    <mxGeometry relative="1" as="geometry"/>
                </mxCell>
                <mxCell id="19" value="Cuidador" style="swimlane;rounded=0;" vertex="1" collapsed="1" parent="1">
                    <mxGeometry x="250" y="270" width="100" height="30" as="geometry">
                        <mxRectangle x="250" y="270" width="170" height="170" as="alternateBounds"/>
                    </mxGeometry>
                </mxCell>
                <mxCell id="20" value="&lt;ul&gt;&lt;li&gt;&lt;br&gt;&lt;/li&gt;&lt;/ul&gt;" style="whiteSpace=wrap;html=1;align=left;" vertex="1" parent="19">
                    <mxGeometry y="20" width="170" height="80" as="geometry"/>
                </mxCell>
                <mxCell id="22" value="Adopcion" style="swimlane;rounded=0;" vertex="1" parent="1">
                    <mxGeometry x="210" y="380" width="170" height="170" as="geometry">
                        <mxRectangle x="210" y="50" width="100" height="30" as="alternateBounds"/>
                    </mxGeometry>
                </mxCell>
                <mxCell id="23" value="&lt;ul&gt;&lt;li&gt;pet&amp;nbsp;&lt;/li&gt;&lt;li&gt;type&amp;nbsp;&lt;/li&gt;&lt;li&gt;color&lt;/li&gt;&lt;/ul&gt;" style="whiteSpace=wrap;html=1;align=left;" vertex="1" parent="22">
                    <mxGeometry y="20" width="170" height="80" as="geometry"/>
                </mxCell>
                <mxCell id="29" value="" style="edgeStyle=none;html=1;" edge="1" parent="1" source="25">
                    <mxGeometry relative="1" as="geometry">
                        <mxPoint x="600.0019047619048" y="260" as="targetPoint"/>
                    </mxGeometry>
                </mxCell>
                <mxCell id="34" value="" style="edgeStyle=none;html=1;" edge="1" parent="1" source="25">
                    <mxGeometry relative="1" as="geometry">
                        <mxPoint x="725.0019047619048" y="260" as="targetPoint"/>
                    </mxGeometry>
                </mxCell>
                <mxCell id="25" value="Pets" style="swimlane;rounded=0;" vertex="1" parent="1">
                    <mxGeometry x="610.24" y="50" width="170" height="170" as="geometry">
                        <mxRectangle x="210" y="50" width="100" height="30" as="alternateBounds"/>
                    </mxGeometry>
                </mxCell>
                <mxCell id="26" value="&lt;ul&gt;&lt;li&gt;id&lt;/li&gt;&lt;li&gt;name&lt;/li&gt;&lt;li&gt;color&lt;/li&gt;&lt;li&gt;animal&lt;/li&gt;&lt;li&gt;tipo&lt;/li&gt;&lt;/ul&gt;" style="whiteSpace=wrap;html=1;align=left;" vertex="1" parent="25">
                    <mxGeometry y="20" width="170" height="140" as="geometry"/>
                </mxCell>
                <mxCell id="27" value="loro" style="swimlane;rounded=0;" vertex="1" collapsed="1" parent="1">
                    <mxGeometry x="390" y="260" width="100" height="30" as="geometry">
                        <mxRectangle x="440.24" y="260" width="170" height="170" as="alternateBounds"/>
                    </mxGeometry>
                </mxCell>
                <mxCell id="28" value="&lt;ul&gt;&lt;li&gt;&lt;br&gt;&lt;/li&gt;&lt;/ul&gt;" style="whiteSpace=wrap;html=1;align=left;" vertex="1" parent="27">
                    <mxGeometry y="20" width="170" height="140" as="geometry"/>
                </mxCell>
                <mxCell id="35" value="cat" style="swimlane;rounded=0;startSize=23;" vertex="1" collapsed="1" parent="1">
                    <mxGeometry x="510.24" y="260" width="100" height="30" as="geometry">
                        <mxRectangle x="440.24" y="260" width="170" height="170" as="alternateBounds"/>
                    </mxGeometry>
                </mxCell>
                <mxCell id="36" value="&lt;ul&gt;&lt;li&gt;&lt;br&gt;&lt;/li&gt;&lt;/ul&gt;" style="whiteSpace=wrap;html=1;align=left;" vertex="1" parent="35">
                    <mxGeometry y="20" width="170" height="140" as="geometry"/>
                </mxCell>
                <mxCell id="37" value="dog" style="swimlane;rounded=0;startSize=23;" vertex="1" collapsed="1" parent="1">
                    <mxGeometry x="620" y="260" width="100" height="30" as="geometry">
                        <mxRectangle x="440.24" y="260" width="170" height="170" as="alternateBounds"/>
                    </mxGeometry>
                </mxCell>
                <mxCell id="38" value="&lt;ul&gt;&lt;li&gt;&lt;br&gt;&lt;/li&gt;&lt;/ul&gt;" style="whiteSpace=wrap;html=1;align=left;" vertex="1" parent="37">
                    <mxGeometry y="20" width="170" height="140" as="geometry"/>
                </mxCell>
                <mxCell id="39" value="dog" style="swimlane;rounded=0;startSize=23;" vertex="1" collapsed="1" parent="1">
                    <mxGeometry x="730" y="260" width="100" height="30" as="geometry">
                        <mxRectangle x="440.24" y="260" width="170" height="170" as="alternateBounds"/>
                    </mxGeometry>
                </mxCell>
                <mxCell id="40" value="&lt;ul&gt;&lt;li&gt;&lt;br&gt;&lt;/li&gt;&lt;/ul&gt;" style="whiteSpace=wrap;html=1;align=left;" vertex="1" parent="39">
                    <mxGeometry y="20" width="170" height="140" as="geometry"/>
                </mxCell>
            </root>
        </mxGraphModel>
    </diagram>
</mxfile>